<svg width="512" height="512" viewBox="0 0 512 512" fill="none" xmlns="http://www.w3.org/2000/svg">
  <!-- Background circle with gradient -->
  <defs>
    <linearGradient id="bgGradient" x1="0%" y1="0%" x2="100%" y2="100%">
      <stop offset="0%" style="stop-color:#01EF7F;stop-opacity:1" />
      <stop offset="100%" style="stop-color:#00C465;stop-opacity:1" />
    </linearGradient>
    <linearGradient id="heartGradient" x1="0%" y1="0%" x2="100%" y2="100%">
      <stop offset="0%" style="stop-color:#ffffff;stop-opacity:1" />
      <stop offset="100%" style="stop-color:#f0f9ff;stop-opacity:1" />
    </linearGradient>
  </defs>
  
  <!-- Background -->
  <circle cx="256" cy="256" r="240" fill="url(#bgGradient)" stroke="#00A855" stroke-width="8"/>
  
  <!-- Heart icon (similar to Lucide Heart) -->
  <path d="M256 416c-7.5 0-15-2.5-21-7.5C195 374 128 310 128 240c0-44.5 35.5-80 80-80 24.5 0 46.5 11 62 28.5 4 4.5 10 4.5 14 0C299.5 171 321.5 160 346 160c44.5 0 80 35.5 80 80 0 70-67 134-107 168.5-6 5-13.5 7.5-21 7.5z" 
        fill="url(#heartGradient)" 
        stroke="#e5e7eb" 
        stroke-width="4"/>
  
  <!-- Plus sign inside heart -->
  <rect x="246" y="220" width="20" height="60" rx="10" fill="#01EF7F"/>
  <rect x="226" y="240" width="60" height="20" rx="10" fill="#01EF7F"/>
</svg>