<svg width="120" height="120" viewBox="0 0 120 120" xmlns="http://www.w3.org/2000/svg">
  <!-- Background circle with gradient -->
  <defs>
    <linearGradient id="bgGradient" x1="0%" y1="0%" x2="100%" y2="100%">
      <stop offset="0%" style="stop-color:#10B981;stop-opacity:1" />
      <stop offset="100%" style="stop-color:#059669;stop-opacity:1" />
    </linearGradient>
    <linearGradient id="heartGradient" x1="0%" y1="0%" x2="100%" y2="100%">
      <stop offset="0%" style="stop-color:#FFFFFF;stop-opacity:1" />
      <stop offset="100%" style="stop-color:#F0FDF4;stop-opacity:1" />
    </linearGradient>
    <filter id="shadow" x="-50%" y="-50%" width="200%" height="200%">
      <feDropShadow dx="2" dy="4" stdDeviation="3" flood-opacity="0.3"/>
    </filter>
  </defs>
  
  <!-- Main background circle -->
  <circle cx="60" cy="60" r="58" fill="url(#bgGradient)" filter="url(#shadow)"/>
  
  <!-- Heart icon -->
  <path d="M60 85c-1.5 0-3-0.6-4-1.7C45 72 35 62.5 35 50c0-8.8 7.2-16 16-16 4.4 0 8.4 1.8 11.3 4.7C65.6 35.8 69.6 34 74 34c8.8 0 16 7.2 16 16 0 12.5-10 22-21 33.3-1 1.1-2.5 1.7-4 1.7z" 
        fill="url(#heartGradient)" 
        stroke="#FFFFFF" 
        stroke-width="1"/>
  
  <!-- Plus sign for medical cross -->
  <g fill="#10B981">
    <!-- Vertical bar -->
    <rect x="57" y="45" width="6" height="20" rx="3"/>
    <!-- Horizontal bar -->
    <rect x="47" y="52" width="20" height="6" rx="3"/>
  </g>
  
  <!-- Pulse line -->
  <path d="M25 95 L35 95 L40 85 L45 105 L50 75 L55 95 L95 95" 
        stroke="#FFFFFF" 
        stroke-width="3" 
        fill="none" 
        stroke-linecap="round" 
        stroke-linejoin="round"
        opacity="0.8"/>
</svg>